#tb 0: 1/25
0,          0,          0,        1,   149760, 0x8ce7200b
0,          1,          1,        1,   149760, 0x73610669
0,          2,          2,        1,   149760, 0xc01620f4
0,          3,          3,        1,   149760, 0x847a4297
0,          4,          4,        1,   149760, 0xb4d3e870
0,          5,          5,        1,   149760, 0xc2dd98a6
0,          6,          6,        1,   149760, 0xefd02009
0,          7,          7,        1,   149760, 0x3ae86ed0
0,          8,          8,        1,   149760, 0x92f3cfb6
0,          9,          9,        1,   149760, 0x0393e437
0,         10,         10,        1,   149760, 0x6b29ea60
0,         11,         11,        1,   149760, 0x9cb1216a
0,         12,         12,        1,   149760, 0x82c2b1c4
0,         13,         13,        1,   149760, 0x74899241
0,         14,         14,        1,   149760, 0xa561f720
0,         15,         15,        1,   149760, 0x339a11f6
0,         16,         16,        1,   149760, 0x6bd9772b
0,         17,         17,        1,   149760, 0x0a0c7c7d
0,         18,         18,        1,   149760, 0x38426f65
0,         19,         19,        1,   149760, 0x134ee7b3
0,         20,         20,        1,   149760, 0xe436e35c
0,         21,         21,        1,   149760, 0x4174d949
0,         22,         22,        1,   149760, 0x44e60f0d
0,         23,         23,        1,   149760, 0xbb6fb0a4
0,         24,         24,        1,   149760, 0x715a653e
0,         25,         25,        1,   149760, 0xad11b160
0,         26,         26,        1,   149760, 0xfa6b368e
0,         27,         27,        1,   149760, 0x60ff970f
0,         28,         28,        1,   149760, 0x16430649
0,         29,         29,        1,   149760, 0xa6cc0767
0,         30,         30,        1,   149760, 0x59b0c566
0,         31,         31,        1,   149760, 0xc9e3dfa9
0,         32,         32,        1,   149760, 0x82873917
0,         33,         33,        1,   149760, 0xc49e5d22
0,         34,         34,        1,   149760, 0x416890a8
0,         35,         35,        1,   149760, 0x386e57e8
0,         36,         36,        1,   149760, 0x1c27e9d7
0,         37,         37,        1,   149760, 0x85425596
0,         38,         38,        1,   149760, 0xe6107df8
0,         39,         39,        1,   149760, 0x056a3977
0,         40,         40,        1,   149760, 0x753cf7f7
0,         41,         41,        1,   149760, 0xc4005218
0,         42,         42,        1,   149760, 0xce7edcf2
0,         43,         43,        1,   149760, 0x93465fee
0,         44,         44,        1,   149760, 0xa21b040a
0,         45,         45,        1,   149760, 0xd82a53d5
0,         46,         46,        1,   149760, 0x8f8fd3ae
0,         47,         47,        1,   149760, 0x52420da5
0,         48,         48,        1,   149760, 0xa899a9be
0,         49,         49,        1,   149760, 0xcd85e363
0,         50,         50,        1,   149760, 0x1a9240c4
0,         51,         51,        1,   149760, 0xf0b11a36
0,         52,         52,        1,   149760, 0xcf175809
0,         53,         53,        1,   149760, 0x24afecc2
0,         54,         54,        1,   149760, 0x874f7176
0,         55,         55,        1,   149760, 0xb126dff9
0,         56,         56,        1,   149760, 0x825ba060
0,         57,         57,        1,   149760, 0x18c55eed
0,         58,         58,        1,   149760, 0xf09b03f0
0,         59,         59,        1,   149760, 0xf4dafd64
0,         60,         60,        1,   149760, 0x08b49190
0,         61,         61,        1,   149760, 0xcf336dc7
0,         62,         62,        1,   149760, 0x51c65c08
0,         63,         63,        1,   149760, 0x6cfe3433
0,         64,         64,        1,   149760, 0x4b0af196
0,         65,         65,        1,   149760, 0xffaeb2db
0,         66,         66,        1,   149760, 0xa990a19f
0,         67,         67,        1,   149760, 0x7ed944a3
